<svg width="28" height="30" viewBox="0 0 28 30" fill="none" xmlns="http://www.w3.org/2000/svg">
<path d="M11.5 2.65957C10.0624 2.65974 8.64571 3.02628 7.36859 3.7285C6.09146 4.43073 4.99105 5.44821 4.15947 6.69577C3.32788 7.94332 2.78933 9.38466 2.58889 10.8991C2.38844 12.4136 2.53194 13.9571 3.00738 15.4004C3.48281 16.8437 4.27634 18.1449 5.32154 19.195C6.36673 20.2451 7.63318 21.0135 9.01487 21.436C10.3966 21.8584 11.8533 21.9226 13.2631 21.6232C14.6729 21.3238 15.9947 20.6694 17.118 19.7149L23.793 26.816C23.9816 27.0097 24.2342 27.117 24.4964 27.1145C24.7586 27.1121 25.0094 27.0002 25.1948 26.803C25.3802 26.6058 25.4854 26.3389 25.4877 26.06C25.49 25.7811 25.3892 25.5123 25.207 25.3117L18.532 18.2106C19.59 16.802 20.2526 15.1041 20.4435 13.3125C20.6344 11.5209 20.3459 9.70836 19.6112 8.08351C18.8764 6.45865 17.7253 5.08753 16.2904 4.12797C14.8554 3.16841 13.1949 2.65942 11.5 2.65957V2.65957ZM4.5 12.234C4.5 10.259 5.2375 8.3649 6.55026 6.96835C7.86301 5.57181 9.64349 4.78723 11.5 4.78723C13.3565 4.78723 15.137 5.57181 16.4498 6.96835C17.7625 8.3649 18.5 10.259 18.5 12.234C18.5 14.2091 17.7625 16.1032 16.4498 17.4997C15.137 18.8963 13.3565 19.6809 11.5 19.6809C9.64349 19.6809 7.86301 18.8963 6.55026 17.4997C5.2375 16.1032 4.5 14.2091 4.5 12.234V12.234Z" fill="white"/>
</svg>
